<svg width="1200" height="700" viewBox="0 0 1200 700" fill="none" xmlns="http://www.w3.org/2000/svg">
  <defs>
    <linearGradient id="bg" x1="110" y1="80" x2="1120" y2="620" gradientUnits="userSpaceOnUse">
      <stop offset="0" stop-color="#271205"/>
      <stop offset="1" stop-color="#130803"/>
    </linearGradient>
    <linearGradient id="bar" x1="250" y1="540" x2="950" y2="160" gradientUnits="userSpaceOnUse">
      <stop offset="0" stop-color="#FFDFAF"/>
      <stop offset="1" stop-color="#FF7C24"/>
    </linearGradient>
  </defs>

  <rect width="1200" height="700" fill="url(#bg)"/>

  <rect x="170" y="120" width="860" height="460" rx="30" fill="#2A1406" stroke="#FFD39D" stroke-opacity="0.28"/>

  <line x1="230" y1="500" x2="950" y2="500" stroke="#FFD8A7" stroke-opacity="0.4" stroke-width="2"/>
  <line x1="230" y1="425" x2="950" y2="425" stroke="#FFD8A7" stroke-opacity="0.28" stroke-width="2"/>
  <line x1="230" y1="350" x2="950" y2="350" stroke="#FFD8A7" stroke-opacity="0.2" stroke-width="2"/>
  <line x1="230" y1="275" x2="950" y2="275" stroke="#FFD8A7" stroke-opacity="0.16" stroke-width="2"/>

  <rect x="260" y="420" width="70" height="80" rx="14" fill="url(#bar)" fill-opacity="0.46"/>
  <rect x="370" y="360" width="70" height="140" rx="14" fill="url(#bar)" fill-opacity="0.55"/>
  <rect x="480" y="302" width="70" height="198" rx="14" fill="url(#bar)" fill-opacity="0.64"/>
  <rect x="590" y="248" width="70" height="252" rx="14" fill="url(#bar)" fill-opacity="0.74"/>
  <rect x="700" y="328" width="70" height="172" rx="14" fill="url(#bar)" fill-opacity="0.58"/>
  <rect x="810" y="214" width="70" height="286" rx="14" fill="url(#bar)" fill-opacity="0.84"/>

  <path d="M260 390C316 342 356 372 410 328C470 278 530 298 590 226C650 160 722 210 810 168" stroke="#FFE4B7" stroke-width="6" stroke-linecap="round"/>
  <circle cx="260" cy="390" r="9" fill="#FFECCD"/>
  <circle cx="410" cy="328" r="9" fill="#FFD99F"/>
  <circle cx="590" cy="226" r="9" fill="#FFC06F"/>
  <circle cx="810" cy="168" r="9" fill="#FF8A2F"/>

  <rect x="842" y="130" width="170" height="76" rx="18" fill="#2B1407" stroke="#FFD09A" stroke-opacity="0.35"/>
  <rect x="868" y="154" width="112" height="12" rx="6" fill="#FFD9A5"/>
  <rect x="868" y="175" width="76" height="10" rx="5" fill="#FFBE73" fill-opacity="0.65"/>
</svg>
