<svg width="1600" height="1000" viewBox="0 0 1600 1000" fill="none" xmlns="http://www.w3.org/2000/svg">
  <defs>
    <linearGradient id="bg" x1="180" y1="80" x2="1420" y2="920" gradientUnits="userSpaceOnUse">
      <stop offset="0" stop-color="#2A1406"/>
      <stop offset="0.52" stop-color="#1A0D04"/>
      <stop offset="1" stop-color="#130904"/>
    </linearGradient>
    <radialGradient id="glowA" cx="0" cy="0" r="1" gradientUnits="userSpaceOnUse" gradientTransform="translate(360 250) rotate(23) scale(520 360)">
      <stop offset="0" stop-color="#FFCA7D" stop-opacity="0.62"/>
      <stop offset="1" stop-color="#FFCA7D" stop-opacity="0"/>
    </radialGradient>
    <radialGradient id="glowB" cx="0" cy="0" r="1" gradientUnits="userSpaceOnUse" gradientTransform="translate(1250 780) rotate(-35) scale(600 340)">
      <stop offset="0" stop-color="#FF7D2D" stop-opacity="0.54"/>
      <stop offset="1" stop-color="#FF7D2D" stop-opacity="0"/>
    </radialGradient>
    <linearGradient id="panel" x1="450" y1="240" x2="1200" y2="760" gradientUnits="userSpaceOnUse">
      <stop offset="0" stop-color="#3B1F0B"/>
      <stop offset="1" stop-color="#1A0C04"/>
    </linearGradient>
    <linearGradient id="line" x1="320" y1="430" x2="1260" y2="620" gradientUnits="userSpaceOnUse">
      <stop offset="0" stop-color="#FFDCA8"/>
      <stop offset="0.5" stop-color="#FFAE55"/>
      <stop offset="1" stop-color="#FF6F1E"/>
    </linearGradient>
    <filter id="blur" x="-120" y="-120" width="1840" height="1240" filterUnits="userSpaceOnUse" color-interpolation-filters="sRGB">
      <feGaussianBlur stdDeviation="34"/>
    </filter>
  </defs>

  <rect width="1600" height="1000" fill="url(#bg)"/>
  <ellipse cx="360" cy="250" rx="520" ry="340" fill="url(#glowA)"/>
  <ellipse cx="1250" cy="780" rx="600" ry="340" fill="url(#glowB)"/>

  <g opacity="0.32" filter="url(#blur)">
    <circle cx="250" cy="790" r="110" fill="#FFD38E"/>
    <circle cx="1340" cy="180" r="120" fill="#FF8A2A"/>
  </g>

  <rect x="360" y="170" width="900" height="640" rx="38" fill="url(#panel)" stroke="#F7C685" stroke-opacity="0.24" stroke-width="2"/>

  <rect x="420" y="230" width="390" height="210" rx="22" fill="#281305" stroke="#F0B873" stroke-opacity="0.24"/>
  <rect x="845" y="230" width="355" height="130" rx="22" fill="#241104" stroke="#F0B873" stroke-opacity="0.24"/>
  <rect x="845" y="390" width="355" height="290" rx="22" fill="#241104" stroke="#F0B873" stroke-opacity="0.24"/>
  <rect x="420" y="470" width="390" height="210" rx="22" fill="#241104" stroke="#F0B873" stroke-opacity="0.24"/>

  <path d="M458 614C530 566 592 590 660 548C731 504 780 478 844 495C901 510 961 565 1030 544C1096 524 1139 473 1190 446" stroke="url(#line)" stroke-width="10" stroke-linecap="round"/>
  <path d="M458 562C521 514 581 532 646 500C718 463 783 442 842 454C905 469 965 526 1032 506C1095 487 1145 432 1190 410" stroke="#FFE0AF" stroke-opacity="0.42" stroke-width="3" stroke-linecap="round"/>

  <circle cx="458" cy="614" r="13" fill="#FFE7C0"/>
  <circle cx="660" cy="548" r="13" fill="#FFD08B"/>
  <circle cx="844" cy="495" r="13" fill="#FFB057"/>
  <circle cx="1030" cy="544" r="13" fill="#FF933C"/>
  <circle cx="1190" cy="446" r="13" fill="#FF7A20"/>

  <g opacity="0.92">
    <rect x="470" y="268" width="152" height="16" rx="8" fill="#FFCF8E" fill-opacity="0.85"/>
    <rect x="470" y="296" width="240" height="10" rx="5" fill="#FFC37A" fill-opacity="0.52"/>
    <rect x="470" y="318" width="180" height="10" rx="5" fill="#FFC37A" fill-opacity="0.38"/>

    <rect x="873" y="266" width="86" height="74" rx="14" fill="#331806"/>
    <rect x="972" y="248" width="86" height="92" rx="14" fill="#3E1D08"/>
    <rect x="1071" y="282" width="86" height="58" rx="14" fill="#5A290B"/>

    <rect x="470" y="520" width="290" height="18" rx="9" fill="#FFC275" fill-opacity="0.44"/>
    <rect x="470" y="550" width="248" height="14" rx="7" fill="#FFC275" fill-opacity="0.32"/>
    <rect x="470" y="576" width="205" height="14" rx="7" fill="#FFC275" fill-opacity="0.22"/>
  </g>

  <rect x="1040" y="736" width="240" height="86" rx="20" fill="#2B1406" stroke="#F6BE7A" stroke-opacity="0.34"/>
  <circle cx="1088" cy="779" r="14" fill="#FFD698"/>
  <rect x="1112" y="770" width="116" height="10" rx="5" fill="#FFD29A" fill-opacity="0.7"/>
  <rect x="1112" y="788" width="86" height="10" rx="5" fill="#FFBE70" fill-opacity="0.45"/>
</svg>
